PathFileType  4	(X/Y/Z) C:\Users\antoi\Documents\MyRepositories\mobilecap\ResultsAnalysis
DataRate	CameraRate	NumFrames	NumMarkers	Units	OrigDataRate	OrigDataStartFrame	OrigNumFrames
100.0	100.0	4	51	mm	100.0	145	231
Frame#	Time	r_knee			r_shank_antsup			r_ankle			r_calc			r_5meta			r_toe			L_knee			L_shank_antsup			L_ankle			L_calc			L_5meta			L_toe			r_sh2			r_sh3			r_sh4			L_sh2			L_sh3			r_thigh1			r_thigh2			r_thigh3			r_thigh4			r_thigh5			L_thigh1			L_thigh2			L_thigh3			L_thigh4			r.ASIS			r.PSIS			L.ASIS			L.PSIS			C7			R_Shoulder			L_Shoulder			R_Sternum			L_Sternum			R_humerus			R_elbow_med			R_elbow_lat			R_forearm			R_wrist_radius			R_wrist_ulna			L_humerus			L_elbow_med			L_elbow_lat			L_forearm			L_wrist_radius			L_wrist_ulna			R_HJC			L_HJC			R_HJC_reg			L_HJC_reg			
		X1	Y1	Z1	X2	Y2	Z2	X3	Y3	Z3	X4	Y4	Z4	X5	Y5	Z5	X6	Y6	Z6	X7	Y7	Z7	X8	Y8	Z8	X9	Y9	Z9	X10	Y10	Z10	X11	Y11	Z11	X12	Y12	Z12	X13	Y13	Z13	X14	Y14	Z14	X15	Y15	Z15	X16	Y16	Z16	X17	Y17	Z17	X18	Y18	Z18	X19	Y19	Z19	X20	Y20	Z20	X21	Y21	Z21	X22	Y22	Z22	X23	Y23	Z23	X24	Y24	Z24	X25	Y25	Z25	X26	Y26	Z26	X27	Y27	Z27	X28	Y28	Z28	X29	Y29	Z29	X30	Y30	Z30	X31	Y31	Z31	X32	Y32	Z32	X33	Y33	Z33	X34	Y34	Z34	X35	Y35	Z35	X36	Y36	Z36	X37	Y37	Z37	X38	Y38	Z38	X39	Y39	Z39	X40	Y40	Z40	X41	Y41	Z41	X42	Y42	Z42	X43	Y43	Z43	X44	Y44	Z44	X45	Y45	Z45	X46	Y46	Z46	X47	Y47	Z47	X48	Y48	Z48	X49	Y49	Z49	X50	Y50	Z50	X51	Y51	Z51	

145	1.44000000	-70.13859	474.09606	-452.32439	-51.96301	372.98017	-467.48924	-289.57524	129.81452	-472.94244	-389.96484	89.68760	-517.87111	-195.61265	48.65703	-432.22747	-133.38417	69.50164	-496.18459	-125.88299	473.19731	-804.75022	-142.69401	390.26000	-823.35831	-341.94131	125.31471	-754.17227	-429.38856	78.22695	-687.47255	-253.73997	50.99635	-801.22562	-182.41986	71.33017	-747.54560	-118.12645	281.75222	-446.18411	-95.21632	414.14567	-422.35384	-176.36825	332.45684	-413.25024	-217.27344	438.50526	-809.73854	-270.90090	329.02434	-797.39325	-227.71817	764.95237	-433.61130	-149.79233	692.08496	-444.31632	-163.55345	636.12136	-407.52380	-301.32568	681.81054	-420.56922	-211.64476	609.28081	-422.15397	-246.35367	740.57318	-796.39668	-146.68245	641.21144	-800.27462	-324.05085	664.06243	-813.66684	-230.59813	563.70910	-816.04514	-281.62104	898.73294	-491.72089	-470.78567	920.97935	-533.62273	-321.80501	889.44503	-735.96583	-492.80603	919.69950	-641.89427	-240.20212	1420.34556	-627.22870	-165.85150	1395.10109	-495.84692	-199.88830	1388.17960	-770.14619	-123.64310	1315.09722	-605.22157	-128.80424	1310.79155	-665.78589	-91.04677	1390.51948	-385.17746	44.93420	1304.06112	-248.79113	-8.14983	1369.02732	-213.54113	66.27222	1486.36901	-310.08951	86.92682	1537.45282	-381.45976	119.22858	1538.12225	-349.65930	-170.69866	1388.18485	-881.42281	25.20177	1293.67981	-1001.95019	-10.65092	1370.29181	-1028.01171	25.93816	1420.65336	-980.88011	120.21949	1503.94856	-863.50507	152.21486	1504.07333	-889.58984	-371.22147	787.21244	-494.23692	-407.84725	786.63516	-697.93091	-347.11096	817.64069	-512.83535	-379.69166	815.74800	-673.02930	
146	1.45000000	-77.69620	483.61553	-451.65428	-57.53993	383.54912	-466.28869	-287.37405	133.28726	-472.92388	-388.22770	95.36410	-518.36743	-194.71874	49.32672	-432.40984	-132.00240	69.30921	-496.09881	-136.35316	482.11897	-806.98366	-151.52942	398.06311	-825.67886	-341.01302	127.18852	-754.38202	-428.36942	80.78533	-687.36152	-253.20041	51.08632	-801.11852	-181.75455	71.16194	-747.84092	-121.24821	290.81483	-444.47386	-102.65369	424.00967	-421.32958	-178.77917	341.76381	-411.02874	-227.22690	444.35704	-810.91095	-277.62026	333.34313	-798.21499	-222.71823	781.79569	-434.33092	-148.23580	705.27234	-444.31414	-165.20843	650.16338	-407.48714	-300.26021	702.20760	-421.37857	-214.12417	625.17241	-423.07913	-244.69181	755.64836	-799.51636	-150.23128	651.27757	-803.75863	-326.39531	682.67849	-814.41159	-238.15448	577.57814	-816.80242	-274.78766	922.20269	-492.94266	-464.03013	944.87960	-534.03533	-316.16617	912.98078	-737.22518	-486.52233	943.83049	-642.30816	-244.01699	1448.00691	-628.75655	-171.52000	1429.24629	-499.91949	-204.16373	1419.86061	-767.33248	-125.20820	1345.97950	-604.97806	-129.59550	1341.50768	-665.69597	-99.18184	1431.00097	-387.70958	35.61151	1354.67567	-244.58706	-21.48923	1418.40474	-212.40335	54.85842	1537.73114	-305.92153	78.28705	1589.04590	-375.68913	108.28966	1590.65258	-342.52695	-175.41871	1424.59107	-877.79106	23.98624	1344.18259	-1002.31555	-16.24645	1419.75601	-1025.80304	17.44128	1470.07256	-976.66116	107.26387	1554.85699	-857.24758	138.37914	1557.84393	-883.40514	-364.70515	810.90039	-495.17097	-402.26995	810.45218	-698.69411	-340.57631	840.98464	-513.94871	-373.85779	839.43305	-674.15743	
147	1.46000000	-85.98364	494.55223	-450.45484	-63.68241	395.85257	-465.04643	-284.52133	137.52834	-472.90931	-385.70333	102.25781	-518.69516	-193.51062	50.32561	-432.56217	-130.28540	69.19128	-496.20168	-148.17191	492.37658	-809.08822	-161.19002	406.83407	-827.70278	-339.68900	129.86346	-755.03142	-426.87539	84.98552	-687.81508	-252.40913	51.31992	-801.24214	-180.70045	70.93455	-748.30614	-124.13131	301.41378	-442.31406	-110.50751	434.57336	-419.87096	-182.55818	351.33202	-409.17106	-238.28238	450.64010	-812.45809	-284.68115	338.17870	-799.36035	-217.98910	799.73939	-435.40515	-147.03875	719.69491	-444.40504	-167.26952	665.79836	-407.43815	-299.18403	723.95627	-422.05692	-216.84522	642.42629	-424.10048	-243.21913	771.48315	-802.85505	-154.59375	662.16683	-807.15009	-329.00421	702.37772	-815.11938	-246.35358	592.78679	-817.49757	-267.70080	946.76271	-494.69473	-457.00762	969.56098	-534.34980	-309.93827	937.94878	-738.69635	-479.88989	968.95265	-642.84259	-248.56057	1477.21369	-630.51183	-177.53578	1463.87039	-504.07741	-209.67237	1452.96133	-764.59322	-127.33871	1378.57436	-605.41378	-131.15363	1373.95947	-665.74140	-107.82653	1471.31234	-390.66660	23.48178	1403.29269	-240.12820	-36.36682	1466.34170	-211.89017	44.42993	1587.61747	-300.01289	71.58602	1639.35356	-367.73085	98.52699	1641.69548	-332.18458	-181.25834	1461.88880	-873.76975	20.15412	1393.49316	-1002.50398	-23.75449	1468.02182	-1023.35745	7.81830	1518.15751	-972.44041	94.80417	1603.87366	-852.36382	124.57912	1609.11132	-878.44670	-357.57647	835.49209	-496.53989	-396.11686	835.50544	-699.87915	-333.59986	865.36181	-515.78808	-367.34788	864.46193	-675.80431	
148	1.47000000	-95.35440	506.85477	-448.90692	-70.86171	409.75974	-463.26884	-281.01201	142.55180	-472.64375	-382.12984	110.21961	-518.54764	-192.06909	51.63118	-432.59243	-128.21793	69.15355	-496.19003	-161.16990	503.83740	-811.20036	-171.96418	416.98517	-829.74484	-337.67710	133.68701	-756.18920	-424.88310	91.07569	-688.70781	-251.36428	51.91042	-801.55951	-179.30057	70.67219	-748.81187	-127.24958	313.20975	-440.22513	-118.92534	446.12492	-417.90923	-189.09470	359.90324	-409.19403	-250.60027	457.76065	-814.50920	-292.26330	343.56848	-800.38614	-213.47467	819.29516	-436.90902	-146.37903	735.74043	-444.62487	-169.55714	682.97858	-407.93131	-298.35675	747.62823	-422.40805	-220.12570	661.95317	-424.21879	-241.96040	788.38456	-806.22340	-159.72714	674.19277	-810.49711	-331.75285	723.73546	-815.81396	-255.27648	609.90092	-818.51192	-260.42462	972.52350	-496.79959	-449.80595	995.30248	-534.84371	-303.14025	964.46401	-740.22778	-473.00576	995.15042	-643.54798	-253.90945	1507.83189	-632.26438	-183.53871	1498.47273	-507.41197	-216.09636	1487.23422	-762.35013	-130.00239	1412.72639	-606.66996	-133.90765	1407.93782	-666.51873	-116.66440	1511.04999	-393.19553	9.70184	1449.65229	-234.68632	-51.82733	1512.60376	-211.34926	34.75124	1635.55105	-291.89679	66.39827	1688.42707	-356.73079	90.11699	1691.08012	-318.62009	-188.07884	1499.73635	-869.82121	14.06300	1440.84981	-1003.33521	-32.78284	1514.55541	-1021.38272	-2.46850	1564.53240	-969.13264	82.81707	1650.72499	-848.88755	111.56802	1657.93430	-875.34459	-350.03648	861.17428	-498.27138	-389.41073	861.90102	-701.44990	-326.28326	891.15332	-518.00288	-360.34721	890.92803	-677.61241	
